<mxfile host="app.diagrams.net" modified="2024-02-19T17:33:11.001Z" agent="Mozilla/5.0 (X11; Linux x86_64) AppleWebKit/537.36 (KHTML, like Gecko) Chrome/121.0.0.0 Safari/537.36" version="23.1.5" etag="Arr9ko70oI0eM_RdVN5f" type="github">
  <diagram name="PÃ¡gina-1" id="KbVCT4owqyXRu4gyBPWE">
    <mxGraphModel>
      <root>
        <mxCell id="0" />
        <mxCell id="1" parent="0" />
      </root>
    </mxGraphModel>
  </diagram>
</mxfile>
